<mxfile host="Electron" agent="Mozilla/5.0 (Windows NT 10.0; Win64; x64) AppleWebKit/537.36 (KHTML, like Gecko) draw.io/26.2.2 Chrome/134.0.6998.178 Electron/35.1.2 Safari/537.36" version="26.2.2">
  <diagram name="Page-1" id="nmM2ICLNHWc5m7DLxpwW">
    <mxGraphModel dx="874" dy="1663" grid="1" gridSize="10" guides="1" tooltips="1" connect="1" arrows="1" fold="1" page="1" pageScale="1" pageWidth="850" pageHeight="1100" math="0" shadow="0">
      <root>
        <mxCell id="0" />
        <mxCell id="1" parent="0" />
        <mxCell id="nHhuy1BlPcPROtAtwmBq-1" value="" style="rounded=0;whiteSpace=wrap;html=1;" vertex="1" parent="1">
          <mxGeometry x="40" y="-40" width="800" height="970" as="geometry" />
        </mxCell>
        <mxCell id="8yFaLF_oU3bt_c8ZNG4h-4" value="" style="rounded=0;whiteSpace=wrap;html=1;fillColor=#6d8764;fontColor=#ffffff;strokeColor=#3A5431;" parent="1" vertex="1">
          <mxGeometry x="160" y="-40" width="550" height="880" as="geometry" />
        </mxCell>
        <mxCell id="lk6zZJpGpk3EefxU4Tmx-1" value="&lt;b&gt;Customer Flight Management&lt;/b&gt;" style="rounded=0;whiteSpace=wrap;html=1;" parent="1" vertex="1">
          <mxGeometry x="387.5" y="-20" width="120" height="40" as="geometry" />
        </mxCell>
        <mxCell id="lk6zZJpGpk3EefxU4Tmx-2" value="Customer" style="shape=umlActor;verticalLabelPosition=bottom;verticalAlign=top;html=1;outlineConnect=0;" parent="1" vertex="1">
          <mxGeometry x="80" y="100" width="30" height="60" as="geometry" />
        </mxCell>
        <mxCell id="lk6zZJpGpk3EefxU4Tmx-3" value="Register" style="ellipse;whiteSpace=wrap;html=1;fillColor=#d5e8d4;strokeColor=#82b366;" parent="1" vertex="1">
          <mxGeometry x="200" y="50" width="100" height="70" as="geometry" />
        </mxCell>
        <mxCell id="lk6zZJpGpk3EefxU4Tmx-4" value="Login" style="ellipse;whiteSpace=wrap;html=1;fillColor=#d5e8d4;strokeColor=#82b366;" parent="1" vertex="1">
          <mxGeometry x="240" y="200" width="130" height="80" as="geometry" />
        </mxCell>
        <mxCell id="lk6zZJpGpk3EefxU4Tmx-5" value="Flight Search" style="ellipse;whiteSpace=wrap;html=1;fillColor=#d5e8d4;strokeColor=#82b366;" parent="1" vertex="1">
          <mxGeometry x="240" y="310" width="120" height="80" as="geometry" />
        </mxCell>
        <mxCell id="lk6zZJpGpk3EefxU4Tmx-8" value="Checkin" style="ellipse;whiteSpace=wrap;html=1;fillColor=#d5e8d4;strokeColor=#82b366;" parent="1" vertex="1">
          <mxGeometry x="200" y="630" width="130" height="80" as="geometry" />
        </mxCell>
        <mxCell id="lk6zZJpGpk3EefxU4Tmx-9" value="Drop Luggage" style="ellipse;whiteSpace=wrap;html=1;fillColor=#d5e8d4;strokeColor=#82b366;" parent="1" vertex="1">
          <mxGeometry x="330" y="710" width="90" height="60" as="geometry" />
        </mxCell>
        <mxCell id="lk6zZJpGpk3EefxU4Tmx-10" value="Access Boardig pass" style="ellipse;whiteSpace=wrap;html=1;fillColor=#dae8fc;strokeColor=#6c8ebf;" parent="1" vertex="1">
          <mxGeometry x="387.5" y="600" width="95" height="70" as="geometry" />
        </mxCell>
        <mxCell id="lk6zZJpGpk3EefxU4Tmx-11" value="Group Checkin" style="ellipse;whiteSpace=wrap;html=1;fillColor=#d5e8d4;strokeColor=#82b366;" parent="1" vertex="1">
          <mxGeometry x="330" y="510" width="80" height="60" as="geometry" />
        </mxCell>
        <mxCell id="lk6zZJpGpk3EefxU4Tmx-13" value="" style="endArrow=none;html=1;rounded=0;entryX=0;entryY=0.429;entryDx=0;entryDy=0;entryPerimeter=0;" parent="1" target="lk6zZJpGpk3EefxU4Tmx-3" edge="1">
          <mxGeometry width="50" height="50" relative="1" as="geometry">
            <mxPoint x="110" y="130" as="sourcePoint" />
            <mxPoint x="220" y="120" as="targetPoint" />
          </mxGeometry>
        </mxCell>
        <mxCell id="lk6zZJpGpk3EefxU4Tmx-16" value="" style="endArrow=none;html=1;rounded=0;" parent="1" target="lk6zZJpGpk3EefxU4Tmx-5" edge="1">
          <mxGeometry width="50" height="50" relative="1" as="geometry">
            <mxPoint x="110" y="130" as="sourcePoint" />
            <mxPoint x="220" y="140" as="targetPoint" />
          </mxGeometry>
        </mxCell>
        <mxCell id="lk6zZJpGpk3EefxU4Tmx-17" value="" style="endArrow=none;html=1;rounded=0;entryX=0;entryY=0;entryDx=0;entryDy=0;" parent="1" target="lk6zZJpGpk3EefxU4Tmx-8" edge="1">
          <mxGeometry width="50" height="50" relative="1" as="geometry">
            <mxPoint x="110" y="130" as="sourcePoint" />
            <mxPoint x="220" y="140" as="targetPoint" />
          </mxGeometry>
        </mxCell>
        <mxCell id="lk6zZJpGpk3EefxU4Tmx-19" value="" style="endArrow=none;dashed=1;html=1;rounded=0;exitX=1;exitY=0;exitDx=0;exitDy=0;endFill=0;startFill=0;startArrow=open;" parent="1" source="lk6zZJpGpk3EefxU4Tmx-8" target="lk6zZJpGpk3EefxU4Tmx-11" edge="1">
          <mxGeometry width="50" height="50" relative="1" as="geometry">
            <mxPoint x="170" y="530" as="sourcePoint" />
            <mxPoint x="220" y="480" as="targetPoint" />
          </mxGeometry>
        </mxCell>
        <mxCell id="lk6zZJpGpk3EefxU4Tmx-20" value="&amp;lt;&amp;lt;extends&amp;gt;&amp;gt;" style="edgeLabel;html=1;align=center;verticalAlign=middle;resizable=0;points=[];" parent="lk6zZJpGpk3EefxU4Tmx-19" vertex="1" connectable="0">
          <mxGeometry x="-0.0143" relative="1" as="geometry">
            <mxPoint x="15" y="-18" as="offset" />
          </mxGeometry>
        </mxCell>
        <mxCell id="lk6zZJpGpk3EefxU4Tmx-21" value="" style="endArrow=open;dashed=1;html=1;rounded=0;entryX=1;entryY=1;entryDx=0;entryDy=0;exitX=0;exitY=0.5;exitDx=0;exitDy=0;startArrow=none;startFill=0;endFill=0;" parent="1" source="lk6zZJpGpk3EefxU4Tmx-9" target="lk6zZJpGpk3EefxU4Tmx-8" edge="1">
          <mxGeometry width="50" height="50" relative="1" as="geometry">
            <mxPoint x="170" y="580" as="sourcePoint" />
            <mxPoint x="220" y="530" as="targetPoint" />
          </mxGeometry>
        </mxCell>
        <mxCell id="lk6zZJpGpk3EefxU4Tmx-22" value="&amp;lt;&amp;lt;include&amp;gt;&amp;gt;" style="edgeLabel;html=1;align=center;verticalAlign=middle;resizable=0;points=[];" parent="lk6zZJpGpk3EefxU4Tmx-21" vertex="1" connectable="0">
          <mxGeometry x="0.308" relative="1" as="geometry">
            <mxPoint x="11" y="7" as="offset" />
          </mxGeometry>
        </mxCell>
        <mxCell id="lk6zZJpGpk3EefxU4Tmx-23" value="" style="endArrow=none;html=1;rounded=0;" parent="1" target="lk6zZJpGpk3EefxU4Tmx-4" edge="1">
          <mxGeometry width="50" height="50" relative="1" as="geometry">
            <mxPoint x="110" y="130" as="sourcePoint" />
            <mxPoint x="220" y="90" as="targetPoint" />
          </mxGeometry>
        </mxCell>
        <mxCell id="lk6zZJpGpk3EefxU4Tmx-27" value="Update&lt;div&gt;Customer&lt;/div&gt;&lt;div&gt;Database&lt;/div&gt;" style="ellipse;whiteSpace=wrap;html=1;fillColor=#f8cecc;strokeColor=#b85450;" parent="1" vertex="1">
          <mxGeometry x="550" y="55" width="80" height="70" as="geometry" />
        </mxCell>
        <mxCell id="lk6zZJpGpk3EefxU4Tmx-28" value="Customer&lt;div&gt;Detail&lt;br&gt;&lt;div&gt;Verification&lt;/div&gt;&lt;/div&gt;" style="ellipse;whiteSpace=wrap;html=1;fillColor=#f8cecc;strokeColor=#b85450;" parent="1" vertex="1">
          <mxGeometry x="395" y="40" width="80" height="70" as="geometry" />
        </mxCell>
        <mxCell id="lk6zZJpGpk3EefxU4Tmx-29" value="Uniqueness&lt;div&gt;verification&lt;/div&gt;" style="ellipse;whiteSpace=wrap;html=1;fillColor=#f8cecc;strokeColor=#b85450;" parent="1" vertex="1">
          <mxGeometry x="460" y="160" width="80" height="50" as="geometry" />
        </mxCell>
        <mxCell id="lk6zZJpGpk3EefxU4Tmx-31" value="" style="endArrow=none;html=1;rounded=0;exitX=1;exitY=0.5;exitDx=0;exitDy=0;entryX=0;entryY=0;entryDx=0;entryDy=0;" parent="1" source="lk6zZJpGpk3EefxU4Tmx-3" target="lk6zZJpGpk3EefxU4Tmx-28" edge="1">
          <mxGeometry width="50" height="50" relative="1" as="geometry">
            <mxPoint x="450" y="210" as="sourcePoint" />
            <mxPoint x="500" y="160" as="targetPoint" />
          </mxGeometry>
        </mxCell>
        <mxCell id="lk6zZJpGpk3EefxU4Tmx-36" value="" style="endArrow=none;html=1;rounded=0;entryX=0;entryY=0;entryDx=0;entryDy=0;exitX=1;exitY=0.5;exitDx=0;exitDy=0;" parent="1" source="lk6zZJpGpk3EefxU4Tmx-28" target="lk6zZJpGpk3EefxU4Tmx-27" edge="1">
          <mxGeometry width="50" height="50" relative="1" as="geometry">
            <mxPoint x="350" y="210" as="sourcePoint" />
            <mxPoint x="400" y="160" as="targetPoint" />
          </mxGeometry>
        </mxCell>
        <mxCell id="lk6zZJpGpk3EefxU4Tmx-37" value="" style="endArrow=none;html=1;rounded=0;entryX=0;entryY=0.5;entryDx=0;entryDy=0;entryPerimeter=0;exitX=1;exitY=0.5;exitDx=0;exitDy=0;" parent="1" source="lk6zZJpGpk3EefxU4Tmx-27" edge="1">
          <mxGeometry width="50" height="50" relative="1" as="geometry">
            <mxPoint x="420" y="260" as="sourcePoint" />
            <mxPoint x="740" y="90" as="targetPoint" />
          </mxGeometry>
        </mxCell>
        <mxCell id="lk6zZJpGpk3EefxU4Tmx-40" value="" style="endArrow=none;dashed=1;html=1;rounded=0;exitX=0;exitY=1;exitDx=0;exitDy=0;startArrow=open;startFill=0;endFill=0;" parent="1" source="lk6zZJpGpk3EefxU4Tmx-28" target="lk6zZJpGpk3EefxU4Tmx-4" edge="1">
          <mxGeometry width="50" height="50" relative="1" as="geometry">
            <mxPoint x="420" y="170" as="sourcePoint" />
            <mxPoint x="470" y="120" as="targetPoint" />
          </mxGeometry>
        </mxCell>
        <mxCell id="lk6zZJpGpk3EefxU4Tmx-41" value="&amp;lt;&amp;lt;includes&amp;gt;&amp;gt;" style="edgeLabel;html=1;align=center;verticalAlign=middle;resizable=0;points=[];" parent="lk6zZJpGpk3EefxU4Tmx-40" vertex="1" connectable="0">
          <mxGeometry x="0.2432" y="-3" relative="1" as="geometry">
            <mxPoint x="16" y="-19" as="offset" />
          </mxGeometry>
        </mxCell>
        <mxCell id="lk6zZJpGpk3EefxU4Tmx-47" value="Destination" style="ellipse;whiteSpace=wrap;html=1;fillColor=#e1d5e7;strokeColor=#9673a6;" parent="1" vertex="1">
          <mxGeometry x="400" y="320" width="80" height="60" as="geometry" />
        </mxCell>
        <mxCell id="lk6zZJpGpk3EefxU4Tmx-50" value="Ticket Purchase" style="ellipse;whiteSpace=wrap;html=1;fillColor=#d5e8d4;strokeColor=#82b366;" parent="1" vertex="1">
          <mxGeometry x="200" y="440" width="120" height="80" as="geometry" />
        </mxCell>
        <mxCell id="lk6zZJpGpk3EefxU4Tmx-51" value="Flight" style="ellipse;whiteSpace=wrap;html=1;fillColor=#e1d5e7;strokeColor=#9673a6;" parent="1" vertex="1">
          <mxGeometry x="515" y="350" width="80" height="80" as="geometry" />
        </mxCell>
        <mxCell id="lk6zZJpGpk3EefxU4Tmx-52" value="" style="endArrow=none;html=1;rounded=0;entryX=1;entryY=0.5;entryDx=0;entryDy=0;exitX=0;exitY=0;exitDx=0;exitDy=0;" parent="1" source="lk6zZJpGpk3EefxU4Tmx-47" target="lk6zZJpGpk3EefxU4Tmx-5" edge="1">
          <mxGeometry width="50" height="50" relative="1" as="geometry">
            <mxPoint x="460" y="340" as="sourcePoint" />
            <mxPoint x="510" y="290" as="targetPoint" />
          </mxGeometry>
        </mxCell>
        <mxCell id="lk6zZJpGpk3EefxU4Tmx-53" value="" style="endArrow=none;html=1;rounded=0;" parent="1" source="lk6zZJpGpk3EefxU4Tmx-50" edge="1">
          <mxGeometry width="50" height="50" relative="1" as="geometry">
            <mxPoint x="460" y="440" as="sourcePoint" />
            <mxPoint x="110" y="130" as="targetPoint" />
          </mxGeometry>
        </mxCell>
        <mxCell id="lk6zZJpGpk3EefxU4Tmx-54" value="Airline" style="ellipse;whiteSpace=wrap;html=1;fillColor=#e1d5e7;strokeColor=#9673a6;" parent="1" vertex="1">
          <mxGeometry x="610" y="440" width="80" height="60" as="geometry" />
        </mxCell>
        <mxCell id="lk6zZJpGpk3EefxU4Tmx-55" value="" style="endArrow=none;html=1;rounded=0;entryX=1;entryY=0.5;entryDx=0;entryDy=0;exitX=0;exitY=0.5;exitDx=0;exitDy=0;exitPerimeter=0;" parent="1" target="lk6zZJpGpk3EefxU4Tmx-54" edge="1">
          <mxGeometry width="50" height="50" relative="1" as="geometry">
            <mxPoint x="745" y="360" as="sourcePoint" />
            <mxPoint x="510" y="390" as="targetPoint" />
          </mxGeometry>
        </mxCell>
        <mxCell id="lk6zZJpGpk3EefxU4Tmx-56" value="" style="endArrow=none;html=1;rounded=0;entryX=0;entryY=0.5;entryDx=0;entryDy=0;entryPerimeter=0;exitX=1;exitY=0.5;exitDx=0;exitDy=0;" parent="1" source="lk6zZJpGpk3EefxU4Tmx-51" edge="1">
          <mxGeometry width="50" height="50" relative="1" as="geometry">
            <mxPoint x="460" y="440" as="sourcePoint" />
            <mxPoint x="745" y="360" as="targetPoint" />
          </mxGeometry>
        </mxCell>
        <mxCell id="lk6zZJpGpk3EefxU4Tmx-62" value="" style="endArrow=none;html=1;rounded=0;exitX=1;exitY=1;exitDx=0;exitDy=0;entryX=0;entryY=0;entryDx=0;entryDy=0;" parent="1" source="lk6zZJpGpk3EefxU4Tmx-47" target="lk6zZJpGpk3EefxU4Tmx-51" edge="1">
          <mxGeometry width="50" height="50" relative="1" as="geometry">
            <mxPoint x="460" y="340" as="sourcePoint" />
            <mxPoint x="510" y="290" as="targetPoint" />
          </mxGeometry>
        </mxCell>
        <mxCell id="lk6zZJpGpk3EefxU4Tmx-80" value="" style="endArrow=none;html=1;rounded=0;exitX=1;exitY=0.5;exitDx=0;exitDy=0;entryX=0;entryY=0.5;entryDx=0;entryDy=0;" parent="1" source="lk6zZJpGpk3EefxU4Tmx-8" target="lk6zZJpGpk3EefxU4Tmx-10" edge="1">
          <mxGeometry width="50" height="50" relative="1" as="geometry">
            <mxPoint x="460" y="740" as="sourcePoint" />
            <mxPoint x="510" y="690" as="targetPoint" />
          </mxGeometry>
        </mxCell>
        <mxCell id="8yFaLF_oU3bt_c8ZNG4h-2" value="Airport" style="shape=umlActor;verticalLabelPosition=bottom;verticalAlign=top;html=1;outlineConnect=0;" parent="1" vertex="1">
          <mxGeometry x="760" y="600" width="30" height="60" as="geometry" />
        </mxCell>
        <mxCell id="8yFaLF_oU3bt_c8ZNG4h-6" value="" style="endArrow=none;html=1;rounded=0;exitX=1;exitY=0.5;exitDx=0;exitDy=0;" parent="1" source="lk6zZJpGpk3EefxU4Tmx-10" target="8yFaLF_oU3bt_c8ZNG4h-2" edge="1">
          <mxGeometry width="50" height="50" relative="1" as="geometry">
            <mxPoint x="400" y="620" as="sourcePoint" />
            <mxPoint x="342.2222222222222" y="880" as="targetPoint" />
          </mxGeometry>
        </mxCell>
        <mxCell id="8yFaLF_oU3bt_c8ZNG4h-7" value="" style="endArrow=none;dashed=1;html=1;rounded=0;entryX=0.5;entryY=1;entryDx=0;entryDy=0;exitX=0.5;exitY=0;exitDx=0;exitDy=0;startArrow=open;startFill=0;" parent="1" source="lk6zZJpGpk3EefxU4Tmx-8" target="lk6zZJpGpk3EefxU4Tmx-50" edge="1">
          <mxGeometry width="50" height="50" relative="1" as="geometry">
            <mxPoint x="400" y="520" as="sourcePoint" />
            <mxPoint x="450" y="470" as="targetPoint" />
          </mxGeometry>
        </mxCell>
        <mxCell id="8yFaLF_oU3bt_c8ZNG4h-8" value="&amp;lt;&amp;lt;precedes&amp;gt;&amp;gt;" style="edgeLabel;html=1;align=center;verticalAlign=middle;resizable=0;points=[];" parent="8yFaLF_oU3bt_c8ZNG4h-7" vertex="1" connectable="0">
          <mxGeometry x="0.1778" y="-1" relative="1" as="geometry">
            <mxPoint as="offset" />
          </mxGeometry>
        </mxCell>
        <mxCell id="8yFaLF_oU3bt_c8ZNG4h-9" value="Ticket" style="ellipse;whiteSpace=wrap;html=1;fillColor=#d5e8d4;strokeColor=#82b366;" parent="1" vertex="1">
          <mxGeometry x="350" y="400" width="80" height="70" as="geometry" />
        </mxCell>
        <mxCell id="8yFaLF_oU3bt_c8ZNG4h-12" value="" style="endArrow=none;html=1;rounded=0;exitX=1;exitY=0.5;exitDx=0;exitDy=0;entryX=0;entryY=0.5;entryDx=0;entryDy=0;" parent="1" source="lk6zZJpGpk3EefxU4Tmx-50" target="8yFaLF_oU3bt_c8ZNG4h-9" edge="1">
          <mxGeometry width="50" height="50" relative="1" as="geometry">
            <mxPoint x="400" y="520" as="sourcePoint" />
            <mxPoint x="450" y="470" as="targetPoint" />
          </mxGeometry>
        </mxCell>
        <mxCell id="8yFaLF_oU3bt_c8ZNG4h-13" value="" style="endArrow=open;dashed=1;html=1;rounded=0;entryX=0;entryY=1;entryDx=0;entryDy=0;exitX=1;exitY=0.5;exitDx=0;exitDy=0;endFill=0;" parent="1" source="8yFaLF_oU3bt_c8ZNG4h-9" target="lk6zZJpGpk3EefxU4Tmx-51" edge="1">
          <mxGeometry width="50" height="50" relative="1" as="geometry">
            <mxPoint x="400" y="520" as="sourcePoint" />
            <mxPoint x="450" y="470" as="targetPoint" />
          </mxGeometry>
        </mxCell>
        <mxCell id="8yFaLF_oU3bt_c8ZNG4h-15" value="&amp;lt;&amp;lt;extends&amp;gt;&amp;gt;" style="edgeLabel;html=1;align=center;verticalAlign=middle;resizable=0;points=[];" parent="8yFaLF_oU3bt_c8ZNG4h-13" vertex="1" connectable="0">
          <mxGeometry x="-0.2232" y="-1" relative="1" as="geometry">
            <mxPoint x="11" y="-2" as="offset" />
          </mxGeometry>
        </mxCell>
        <mxCell id="8yFaLF_oU3bt_c8ZNG4h-17" value="Flight Gate" style="ellipse;whiteSpace=wrap;html=1;fillColor=#dae8fc;strokeColor=#6c8ebf;" parent="1" vertex="1">
          <mxGeometry x="550" y="540" width="95" height="70" as="geometry" />
        </mxCell>
        <mxCell id="8yFaLF_oU3bt_c8ZNG4h-19" value="" style="endArrow=none;html=1;rounded=0;entryX=1;entryY=0.5;entryDx=0;entryDy=0;" parent="1" target="8yFaLF_oU3bt_c8ZNG4h-17" edge="1">
          <mxGeometry width="50" height="50" relative="1" as="geometry">
            <mxPoint x="760" y="630" as="sourcePoint" />
            <mxPoint x="450" y="570" as="targetPoint" />
          </mxGeometry>
        </mxCell>
        <mxCell id="8yFaLF_oU3bt_c8ZNG4h-20" value="" style="endArrow=none;dashed=1;html=1;rounded=0;entryX=1;entryY=1;entryDx=0;entryDy=0;exitX=0.5;exitY=0;exitDx=0;exitDy=0;startArrow=open;startFill=0;" parent="1" source="8yFaLF_oU3bt_c8ZNG4h-17" target="lk6zZJpGpk3EefxU4Tmx-51" edge="1">
          <mxGeometry width="50" height="50" relative="1" as="geometry">
            <mxPoint x="400" y="620" as="sourcePoint" />
            <mxPoint x="450" y="570" as="targetPoint" />
          </mxGeometry>
        </mxCell>
        <mxCell id="8yFaLF_oU3bt_c8ZNG4h-23" value="&amp;lt;&amp;lt;includes&amp;gt;&amp;gt;" style="edgeLabel;html=1;align=center;verticalAlign=middle;resizable=0;points=[];" parent="8yFaLF_oU3bt_c8ZNG4h-20" vertex="1" connectable="0">
          <mxGeometry x="-0.1124" y="-3" relative="1" as="geometry">
            <mxPoint x="-3" y="14" as="offset" />
          </mxGeometry>
        </mxCell>
        <mxCell id="8yFaLF_oU3bt_c8ZNG4h-21" value="" style="endArrow=open;dashed=1;html=1;rounded=0;entryX=0.5;entryY=1;entryDx=0;entryDy=0;exitX=0.689;exitY=0;exitDx=0;exitDy=0;exitPerimeter=0;endFill=0;" parent="1" source="lk6zZJpGpk3EefxU4Tmx-10" target="lk6zZJpGpk3EefxU4Tmx-51" edge="1">
          <mxGeometry width="50" height="50" relative="1" as="geometry">
            <mxPoint x="400" y="620" as="sourcePoint" />
            <mxPoint x="450" y="570" as="targetPoint" />
          </mxGeometry>
        </mxCell>
        <mxCell id="8yFaLF_oU3bt_c8ZNG4h-22" value="&amp;lt;&amp;lt;includes&amp;gt;&amp;gt;" style="edgeLabel;html=1;align=center;verticalAlign=middle;resizable=0;points=[];" parent="8yFaLF_oU3bt_c8ZNG4h-21" vertex="1" connectable="0">
          <mxGeometry x="-0.0968" y="-3" relative="1" as="geometry">
            <mxPoint y="1" as="offset" />
          </mxGeometry>
        </mxCell>
        <mxCell id="uRyNhPTEzNsCRZM3b6tW-1" value="" style="endArrow=open;dashed=1;html=1;rounded=0;exitX=1;exitY=1;exitDx=0;exitDy=0;startArrow=none;startFill=0;endFill=0;entryX=0;entryY=0;entryDx=0;entryDy=0;" parent="1" source="lk6zZJpGpk3EefxU4Tmx-28" target="lk6zZJpGpk3EefxU4Tmx-29" edge="1">
          <mxGeometry width="50" height="50" relative="1" as="geometry">
            <mxPoint x="558.5" y="140" as="sourcePoint" />
            <mxPoint x="482.5" y="243" as="targetPoint" />
          </mxGeometry>
        </mxCell>
        <mxCell id="uRyNhPTEzNsCRZM3b6tW-2" value="&amp;lt;&amp;lt;includes&amp;gt;&amp;gt;" style="edgeLabel;html=1;align=center;verticalAlign=middle;resizable=0;points=[];" parent="uRyNhPTEzNsCRZM3b6tW-1" vertex="1" connectable="0">
          <mxGeometry x="0.2432" y="-3" relative="1" as="geometry">
            <mxPoint x="-5" y="-22" as="offset" />
          </mxGeometry>
        </mxCell>
        <mxCell id="uRyNhPTEzNsCRZM3b6tW-3" value="" style="endArrow=open;dashed=1;html=1;rounded=0;exitX=1;exitY=0.5;exitDx=0;exitDy=0;startArrow=none;startFill=0;endFill=0;entryX=0.5;entryY=1;entryDx=0;entryDy=0;" parent="1" source="lk6zZJpGpk3EefxU4Tmx-29" target="lk6zZJpGpk3EefxU4Tmx-27" edge="1">
          <mxGeometry width="50" height="50" relative="1" as="geometry">
            <mxPoint x="610" y="140" as="sourcePoint" />
            <mxPoint x="697" y="220" as="targetPoint" />
          </mxGeometry>
        </mxCell>
        <mxCell id="uRyNhPTEzNsCRZM3b6tW-4" value="&amp;lt;&amp;lt;includes&amp;gt;&amp;gt;" style="edgeLabel;html=1;align=center;verticalAlign=middle;resizable=0;points=[];" parent="uRyNhPTEzNsCRZM3b6tW-3" vertex="1" connectable="0">
          <mxGeometry x="0.2432" y="-3" relative="1" as="geometry">
            <mxPoint x="-4" y="1" as="offset" />
          </mxGeometry>
        </mxCell>
        <mxCell id="uRyNhPTEzNsCRZM3b6tW-6" value="&lt;span style=&quot;text-wrap-mode: wrap;&quot;&gt;Customer&amp;nbsp;&lt;/span&gt;&lt;div&gt;&lt;span style=&quot;text-wrap-mode: wrap;&quot;&gt;Database&lt;/span&gt;&lt;/div&gt;" style="shape=umlActor;verticalLabelPosition=bottom;verticalAlign=top;html=1;outlineConnect=0;" parent="1" vertex="1">
          <mxGeometry x="755" y="55" width="30" height="60" as="geometry" />
        </mxCell>
        <mxCell id="uRyNhPTEzNsCRZM3b6tW-7" value="&lt;span style=&quot;text-wrap-mode: wrap;&quot;&gt;Flight Database&lt;/span&gt;" style="shape=umlActor;verticalLabelPosition=bottom;verticalAlign=top;html=1;outlineConnect=0;" parent="1" vertex="1">
          <mxGeometry x="755" y="320" width="30" height="60" as="geometry" />
        </mxCell>
        <mxCell id="nHhuy1BlPcPROtAtwmBq-3" value="" style="endArrow=none;dashed=1;html=1;rounded=0;entryX=1;entryY=0.5;entryDx=0;entryDy=0;exitX=1;exitY=0;exitDx=0;exitDy=0;curved=1;startArrow=open;startFill=0;" edge="1" parent="1" source="lk6zZJpGpk3EefxU4Tmx-5" target="lk6zZJpGpk3EefxU4Tmx-4">
          <mxGeometry width="50" height="50" relative="1" as="geometry">
            <mxPoint x="420" y="290" as="sourcePoint" />
            <mxPoint x="470" y="240" as="targetPoint" />
            <Array as="points">
              <mxPoint x="410" y="290" />
            </Array>
          </mxGeometry>
        </mxCell>
        <mxCell id="nHhuy1BlPcPROtAtwmBq-4" value="&amp;lt;&amp;lt;precedes&amp;gt;&amp;gt;" style="edgeLabel;html=1;align=center;verticalAlign=middle;resizable=0;points=[];" vertex="1" connectable="0" parent="nHhuy1BlPcPROtAtwmBq-3">
          <mxGeometry x="-0.1931" y="14" relative="1" as="geometry">
            <mxPoint as="offset" />
          </mxGeometry>
        </mxCell>
        <mxCell id="nHhuy1BlPcPROtAtwmBq-5" value="" style="endArrow=none;dashed=1;html=1;rounded=0;entryX=0.5;entryY=1;entryDx=0;entryDy=0;exitX=1;exitY=0;exitDx=0;exitDy=0;endFill=0;startFill=0;startArrow=open;" edge="1" parent="1" source="lk6zZJpGpk3EefxU4Tmx-50" target="lk6zZJpGpk3EefxU4Tmx-5">
          <mxGeometry width="50" height="50" relative="1" as="geometry">
            <mxPoint x="270" y="450" as="sourcePoint" />
            <mxPoint x="320" y="400" as="targetPoint" />
          </mxGeometry>
        </mxCell>
        <mxCell id="nHhuy1BlPcPROtAtwmBq-6" value="&amp;lt;&amp;lt;precedes&lt;span style=&quot;background-color: light-dark(#ffffff, var(--ge-dark-color, #121212)); color: light-dark(rgb(0, 0, 0), rgb(255, 255, 255));&quot;&gt;&amp;gt;&amp;gt;&lt;/span&gt;" style="edgeLabel;html=1;align=center;verticalAlign=middle;resizable=0;points=[];" vertex="1" connectable="0" parent="nHhuy1BlPcPROtAtwmBq-5">
          <mxGeometry x="0.0915" y="-1" relative="1" as="geometry">
            <mxPoint as="offset" />
          </mxGeometry>
        </mxCell>
        <mxCell id="nHhuy1BlPcPROtAtwmBq-7" value="" style="endArrow=none;html=1;rounded=0;entryX=0.5;entryY=1;entryDx=0;entryDy=0;exitX=1;exitY=0;exitDx=0;exitDy=0;" edge="1" parent="1" source="8yFaLF_oU3bt_c8ZNG4h-17" target="lk6zZJpGpk3EefxU4Tmx-54">
          <mxGeometry width="50" height="50" relative="1" as="geometry">
            <mxPoint x="610" y="565" as="sourcePoint" />
            <mxPoint x="660" y="515" as="targetPoint" />
          </mxGeometry>
        </mxCell>
        <mxCell id="nHhuy1BlPcPROtAtwmBq-9" value="" style="endArrow=none;dashed=1;html=1;rounded=0;exitX=1;exitY=0;exitDx=0;exitDy=0;entryX=0;entryY=1;entryDx=0;entryDy=0;" edge="1" parent="1" source="lk6zZJpGpk3EefxU4Tmx-10" target="8yFaLF_oU3bt_c8ZNG4h-17">
          <mxGeometry width="50" height="50" relative="1" as="geometry">
            <mxPoint x="500" y="620" as="sourcePoint" />
            <mxPoint x="550" y="570" as="targetPoint" />
          </mxGeometry>
        </mxCell>
        <mxCell id="nHhuy1BlPcPROtAtwmBq-10" value="&amp;lt;&amp;lt;includes&amp;gt;&amp;gt;" style="edgeLabel;html=1;align=center;verticalAlign=middle;resizable=0;points=[];" vertex="1" connectable="0" parent="nHhuy1BlPcPROtAtwmBq-9">
          <mxGeometry x="0.3263" y="-1" relative="1" as="geometry">
            <mxPoint x="-17" y="6" as="offset" />
          </mxGeometry>
        </mxCell>
      </root>
    </mxGraphModel>
  </diagram>
</mxfile>
